<svg xmlns="http://www.w3.org/2000/svg" viewBox="0 0 204.28 345.51"><defs><style>.cls-1{fill:#c00;}</style></defs><g id="Слой_2" data-name="Слой 2"><g id="Слой_1-2" data-name="Слой 1"><path class="cls-1" d="M187.47,151.34a18.22,18.22,0,0,1-3.74-.61c-15.64-6.35-32.1-7.94-48.74-8.6-5.16-.2-10.31-.49-15.47-.8-3.15-.19-4.5,1.2-4.35,4.35.81,17.52,1.37,35.06,2.42,52.57.79,13,1.45,26.1,3.49,38.95,2.88,18.23,7,36.27,10.56,54.38a12.64,12.64,0,0,1,.58,1.95c.05,1.67-.05,3.34-.09,5a27.3,27.3,0,0,1-4.55-1q-25.44-10.45-50.73.31c-1.37.58-3,.49-4.53.71a19.44,19.44,0,0,1-.06-4.63c3-13.39,6.69-26.65,9-40.14,2.24-12.83,3.56-25.86,4.52-38.85C87.08,198,87.6,181,88.41,164c.29-6.11.48-12.23.79-18.34.16-3.17-1.23-4.49-4.37-4.34-21.57,1.06-43.3,1-63.74,9.58a30.77,30.77,0,0,1-4.67.92c6.37-16.1,6.79-31.55-.08-47.68a26.25,26.25,0,0,1,4.05.79c14.56,5.94,29.82,8.18,45.4,8.8,6.39.25,12.78.47,19.16.8,3.59.18,4.41-1.66,4.16-4.84C88.51,101.84,88,94,87.59,86.11,86.44,62.94,83.42,40.09,76,18a27.68,27.68,0,0,1-.49-3c17.51,4.8,34.59,5.64,52.47-.16-.54,2.54-.9,4.14-1.22,5.75-2.8,14.24-6.25,28.4-8.2,42.76-1.74,12.9-1.81,26-2.66,39-.17,2.57-.5,5.13-.76,7.7-.33,3.41,1.31,4.66,4.6,4.51,8.43-.38,16.93,0,25.27-1.07,10.49-1.28,20.86-3.52,31.24-5.58,2.9-.57,5.64-2,8.46-2.93,2.5-.87,3.66.19,2.69,2.55-5.61,13.67-4.88,27.3-.16,41A13.08,13.08,0,0,1,187.47,151.34ZM128.09,293.83c-.4-2.16-.62-3.47-.9-4.77-2.36-11.17-5.4-22.24-7-33.52-2.88-20.84-5.38-41.77-7.11-62.73-1.16-14.09-.8-28.31-1-42.47-.13-9.81.73-9-9.12-9-10.64,0-10.58,0-10.77,10.92-.18,10.07-.27,20.16-.83,30.21-.87,15.6-1.51,31.25-3.36,46.75-2,16.57-5.16,33-8,49.47-.85,5-2.29,9.84-3.6,15.37C93.84,287,110.57,287.3,128.09,293.83Zm-25.8-178.48c1.5,0,3,0,4.5,0,5-.06,5.15-.31,5.34-5.42.47-12.23.87-24.47,1.64-36.69a232,232,0,0,1,7.85-47.82c1.38-5,1.17-5.35-3.81-4.31a81.69,81.69,0,0,1-28.41.62c-8.2-1.16-8.21-1.14-6.16,7.1,6.25,25.08,8.47,50.65,9,76.4C92.46,116.51,91.06,115.27,102.29,115.35Zm79.37-5.23c-1,.27-2.13.55-3.27.91a149.65,149.65,0,0,1-40.95,6.58c-6.25.2-12.5.59-18.75.81-2.36.09-3.5,1.17-3.49,3.53,0,4,0,7.91,0,11.87,0,2.31,1,3.52,3.4,3.62,5.7.22,11.42.42,17.11.86,7.31.57,14.65,1,21.89,2.16,8.13,1.26,16.15,3.22,24,4.84-.51-5.48-1.47-11.23-1.48-17C180.16,122.39,181.1,116.47,181.66,110.12ZM22,109.66c4.68,12.65,3.69,24.48.46,36.85,12.7-5,25-6.51,37.31-7.43,8.53-.64,17.08-1.16,25.63-1.61,2.5-.13,3.81-1.06,3.79-3.67,0-4,0-7.91,0-11.86,0-2.37-1.15-3.43-3.51-3.52-5.57-.21-11.17-.23-16.7-.88-12.11-1.41-24.21-3.06-36.28-4.84C29.51,112.24,26.45,111,22,109.66Zm80.32,8.75c-9.24,0-9.24,0-9.24,9v.41c.05,10.63-1,9.56,9.71,9.57,10.14,0,9.34.9,9.32-9.13C112.08,117.34,113.21,118.48,102.31,118.41Z"/><path class="cls-1" d="M22,192.89c6.14,4.9,12.61,8.89,21,9.47,1.1-7.56-.81-14.23-2.78-20.84-1.39-4.69-3.19-9.26-4.88-13.86-1-2.68-.59-3.64,2.67-3.39a106,106,0,0,0,15.33,0c3.11-.22,3.65.49,2.77,3.33-2.62,8.57-5.31,17.13-7.49,25.81-.68,2.7.16,5.78.3,8.68,2.6-.53,5.36-.67,7.74-1.7,3.59-1.54,6.89-3.75,10.36-5.58a13.46,13.46,0,0,1,3-.77,23.6,23.6,0,0,1,.41,3q.06,8.25,0,16.51a19,19,0,0,1-.44,3,16,16,0,0,1-3-.77c-4.86-2.34-9.62-4.92-14.56-7.11-3-1.32-4.79-.21-4.35,3.32,1.18,9.29,2,18.65,3.7,27.86,1.63,9,4.1,17.75,6.25,26.6,1,4.2.1,5.19-4.24,4.31-6.53-1.33-6.32-1.27-8.35,5.2-2.61,8.3-5.91,16.38-8.32,24.73-2.83,9.88-1.73,19.45,4.3,28.08,6.6,9.46,16.15,13.06,27.21,12.67C86,340.8,97.39,330.19,100,312.88a35,35,0,0,1,1.58-5.18l1.27.05c.31,1.43.72,2.84.91,4.27,1.74,13.05,8,23.16,20.67,27.45,13.27,4.51,26,2.65,36-8.2,7.07-7.66,9.16-17.3,6.84-27.09-2.58-10.94-6.7-21.52-10.16-32.26-.92-2.86-3.26-2.25-5.09-1.65-7.41,2.46-7.48.08-5.64-6.45,4.88-17.31,8.62-34.84,9.36-52.91.12-2.91-.69-3.64-3.14-2.55-5.3,2.35-10.53,4.86-15.79,7.29-.92.42-1.87.77-2.81,1.15a22.25,22.25,0,0,1-.58-3.29c-.17-5.91-.27-11.83-.35-17.75a30,30,0,0,1,.42-3.39c6.83,5.43,13.56,9.56,22.19,10.11.22-13.43-4.12-25.62-9.41-38.69,3.52.63,5.57,1.28,7.64,1.31,3.38.05,6.77-.33,10.15-.48,1.42-.06,2.85,0,4.27.06a25.83,25.83,0,0,1-.57,4.6c-2,6.63-4.31,13.18-6.1,19.86a61.07,61.07,0,0,0-1.35,10.49c-.21,2.33,1,3.48,3.26,2.51,5.08-2.19,10.07-4.6,15.1-6.89,1.12-.51,2.3-.89,3.45-1.33.06,1.14.15,2.29.16,3.43.06,5.39.12,10.79.1,16.18a19.83,19.83,0,0,1-.55,3.29c-.94-.38-1.9-.7-2.8-1.14-4.73-2.33-9.37-4.85-14.17-7-3.12-1.39-5-.32-4.6,3.43.9,7.56,1.37,15.2,2.84,22.64,2.1,10.66,5,21.16,7.4,31.75.31,1.35.52,3.42-.22,4.11s-2.7.12-4.13.08-3.09-.13-4.64-.19c.09,1.57-.15,3.26.33,4.7,2.47,7.35,5.39,14.55,7.66,22,3.89,12.67,3.08,24.64-5.86,35.37a33.81,33.81,0,0,1-23.9,12.54c-16.87,1.44-28.57-6.55-36.38-21.05-.31-.58-.65-1.16-1.23-2.2-1.56,2.58-2.84,4.89-4.29,7.09-11.26,17-33.48,21.8-50.24,10.3-11.71-8-18.44-20.52-14.37-37.41,2.2-9.08,5.8-17.82,8.67-26.75a23.79,23.79,0,0,0,.54-4.57,27.78,27.78,0,0,0-4.29.2c-5,1-5.7.18-4.6-5,3.17-15,6.34-30.05,9.36-45.1a42.35,42.35,0,0,0,.48-8.13c0-4.54-.77-5.31-5-3.56-4.86,2-9.4,4.79-14.11,7.17a4.49,4.49,0,0,1-2.5.55c-.32,0-.79-1.44-.6-2a29.58,29.58,0,0,0-.29-19.2,3,3,0,0,1,.2-1.58C21,193.57,21.37,193.43,22,192.89Zm23.59,35.59c0,.24-.21,1.59-.49,2.91C42.76,242,40.45,252.55,38,263.12c-.48,2.09-.57,3.44,2.24,3.32,3.64-.14,7.29.14,10.91-.13a3.44,3.44,0,0,0,2.23-2.49c.13-1.39-.69-2.86-1-4.31C50,248.8,47.69,238.09,45.58,228.48Zm112.27.76c-1.56,7.45-3.17,15.3-4.86,23.13-.84,3.84-1.93,7.64-2.66,11.51-.14.77.82,2.52,1.33,2.54,4.67.2,9.35.12,14.46.12C163.27,253.7,160.53,241.3,157.85,229.24ZM51.31,169.5H40.17c1.94,6,3.76,11.69,5.6,17.38C47.56,181.24,49.36,175.6,51.31,169.5Zm112.31-.29H152.48c1.76,5.76,3.5,11.39,5.42,17.64C159.91,180.66,161.72,175.08,163.62,169.21ZM36.89,205.16l-10.38-4.38V210Zm101.52,4.75,10.64-4.75-10.64-4.34Zm-73.43,0V201l-10.32,4.22Zm112.2-9.07-10.4,4.37,10.4,4.57Z"/><path class="cls-1" d="M47.38,61.29q4.86,19.37,9.74,38.76H34.59c.41-1.32.79-2.41,1.08-3.53C38.45,85.75,41.29,75,43.92,64.2c.85-3.48-.42-4.65-4-3.55-4.85,1.49-9.56,3.45-14.37,5.22V49.65l18.19,6.21c.71-9.86-4.53-16.74-7.41-24.73H55.87c-1.23,3-2.54,5.7-3.49,8.53-1.41,4.22-2.6,8.52-3.84,12.8-.69,2.41.47,3.1,2.59,2.39,4.23-1.42,8.41-3,12.64-4.43a21.64,21.64,0,0,1,2.93-.54c.09.89.27,1.77.27,2.65,0,3.33,0,6.66,0,10a26.27,26.27,0,0,1-.28,2.64,9.64,9.64,0,0,1-2.91-.55,37.29,37.29,0,0,0-14.93-4.36ZM46.24,74.54C44,82.07,42,89,40,95.66H52.42C50.33,88.49,48.36,81.78,46.24,74.54ZM41.92,35.23c1.64,3.36,2.88,5.92,4.48,9.23L50,35.23ZM29.8,55.54c.59,1.77.88,3.39,1.18,3.39a24.59,24.59,0,0,0,4.45-.68l0-1Zm27.11,1.61v1.53a44.5,44.5,0,0,0,4.77-.11,17,17,0,0,0,.21-2.89Z"/><path class="cls-1" d="M155.91,56.19A49.36,49.36,0,0,0,150,35a16.29,16.29,0,0,1-1-3.67c1.28-.12,2.56-.33,3.84-.34,4.82,0,9.63,0,15.22,0-3.24,7.78-7.72,14.87-7.69,23.73,6.92.64,12.28-3.2,18.48-5.65V65.81c-4.48-1.64-8.92-3.49-13.51-4.87-4.77-1.43-5.92-.37-4.76,4.4,2.41,9.88,5.09,19.7,7.66,29.54.43,1.67.84,3.35,1.37,5.48-4.08-.28-7.66-.65-11.26-.73a44.48,44.48,0,0,0-6.9.49c-3.9.52-4.71-.38-3.68-4.16,2.45-8.91,4.94-17.81,7.23-26.75a73.39,73.39,0,0,0,1.13-8.57C151.68,60,147.87,61.75,144,63c-2.11.66-4.16,1.51-6.24,2.28a43,43,0,0,0,.41-6.18c-.23-3.21-.84-6.38-1.35-10ZM152,95.67H164.3c-2.09-7-4.09-13.72-6.3-21.11Zm9.88-60.3h-7.65c1.32,3.34,2.41,6.08,3.83,9.64Zm12,20.3-5.54,1.79C173.4,60,173.74,59.88,173.87,55.67Zm-31.34,3.69,5.67-1.7C142.83,55.41,142.83,55.41,142.53,59.36Z"/><path class="cls-1" d="M186.65,157.79c0-4.46,4.17-8.8,8.45-8.8,4.53,0,9.1,4.35,9.17,8.71.07,3.7-5,8.83-8.73,8.9C191,166.69,186.64,162.36,186.65,157.79Zm13.79-.34c-.39-3.06-2.23-4.63-5.45-4.58s-4.48,2-4.48,5c0,3.58,2.2,4.81,5.24,4.77S200.3,160.65,200.44,157.45Z"/><path class="cls-1" d="M126.08,8.65A9.24,9.24,0,0,1,134.8,0c3.77,0,8.83,5.08,8.78,8.87-.05,4.26-4.84,8.81-9.19,8.74S126,13.14,126.08,8.65Zm3.86.19c0,3.12,1.34,4.95,4.62,4.92s5.24-1.61,5.24-4.93-2-4.94-5.23-4.94S130,5.77,129.94,8.84Z"/><path class="cls-1" d="M131.07,306.13a9.16,9.16,0,0,1,9.55-8.15c4.34.36,8.38,5.08,8,9.32-.37,3.87-5.82,8.55-9.45,8.11C134.61,314.86,130.67,310.34,131.07,306.13Zm13.74.36c-.1-3.05-1.7-4.61-4.86-4.66s-5,1.16-5,4.48,1.45,5.29,4.79,5.37S144.61,309.82,144.81,306.49Z"/><path class="cls-1" d="M0,98.29C0,93.42,3.17,90.05,7.93,90c5.41-.07,8.93,3.17,9,8.26a8.38,8.38,0,0,1-8.29,8.65C3.43,107,.05,103.62,0,98.29Zm13,.42c0-3.55-1.69-5.45-4.48-5.52s-5.45,2.5-5.33,5.15c.16,3.24,1.92,4.78,5.31,4.75S13.33,101.63,13,98.71Z"/><path class="cls-1" d="M195.31,106.9a9.07,9.07,0,0,1-8.65-9.1c.18-4.66,4-7.93,9.18-7.8,4.16.1,8.42,4.39,8.38,8.43C204.18,102.7,199.67,107,195.31,106.9Zm-.06-3.89c3.35.24,4.84-1.61,5.07-4.54a5.28,5.28,0,0,0-5.48-5.25c-3.1.35-4.33,2.42-4.29,5.36C190.6,101.7,192,103.4,195.25,103Z"/><path class="cls-1" d="M72.56,306.89c0,4.4-4.27,8.53-8.77,8.58-3.77,0-8.71-4.93-8.81-8.86-.1-4.1,4.49-8.63,8.77-8.65A9.12,9.12,0,0,1,72.56,306.89Zm-3.86-.39c.42-3.26-1.47-4.62-4.78-4.67-3,0-5,1.16-5.13,4.42s1.37,5.35,4.71,5.42C66.57,311.72,68.77,310.38,68.7,306.5Z"/><path class="cls-1" d="M0,157.73C0,153.31,4.23,149,8.49,149s8.45,4.42,8.41,8.91-4.28,8.81-8.57,8.73S0,162.17,0,157.73Zm8.7,5.07c2.76-.18,4.32-1.77,4.34-4.94s-1.25-5-4.55-5-5.26,1.52-5.31,4.86S5.11,162.62,8.7,162.8Z"/><path class="cls-1" d="M77.47,8.81c0,4.49-4.19,8.86-8.48,8.83s-8.42-4.39-8.42-8.81S64.72,0,69,0,77.47,4.33,77.47,8.81Zm-8.9,5c3.3,0,6-2.61,5.58-5.16s-1.84-4.77-5.07-4.76-5.55,2-5.35,5.17C63.94,12.34,66,13.72,68.57,13.78Z"/></g></g></svg>